# xmcd
#
# Track frame offsets: 
#        150
#        16437
#        34958
#        54396
#        67423
#        84414
#        103112
#        115718
#        134677
#        154161
#
# Disc length: 2286 seconds
#
# Revision: 0
# Processed by: cddbd v1.5.1PL0 Copyright (c) Steve Scherf et al.
# Submitted via: ExactAudioCopy v0.95a5
#
DISCID=8b08ec0a
DTITLE=Emily Fennell - Green
DYEAR=2004
DGENRE=Blues
TTITLE0=If I Don't Belong Here
TTITLE1=Is She The One
TTITLE2=Why
TTITLE3=Blue Eyes
TTITLE4=Hilly's Song
TTITLE5=Right Through You
TTITLE6=That's Why I Love You
TTITLE7=Modern Day Rock Star
TTITLE8=Until I Let Him Go
TTITLE9=Better Off This Way
EXTD=
EXTT0=
EXTT1=
EXTT2=
EXTT3=
EXTT4=
EXTT5=
EXTT6=
EXTT7=
EXTT8=
EXTT9=
PLAYORDER=
